<!DOCTYPE svg PUBLIC "-//W3C//DTD SVG 1.1//EN" "http://www.w3.org/Graphics/SVG/1.1/DTD/svg11.dtd">
<!-- Uploaded to: SVG Repo, www.svgrepo.com, Transformed by: SVG Repo Mixer Tools -->
<svg version="1.1" id="Uploaded to svgrepo.com" xmlns="http://www.w3.org/2000/svg" xmlns:xlink="http://www.w3.org/1999/xlink" width="800px" height="800px" viewBox="0 0 32 32" xml:space="preserve" fill="#000000">
<g id="SVGRepo_bgCarrier" stroke-width="0"/>
<g id="SVGRepo_tracerCarrier" stroke-linecap="round" stroke-linejoin="round"/>
<g id="SVGRepo_iconCarrier"> <style type="text/css"> .puchipuchi_een{fill:#f2f3f3;} </style> <path class="puchipuchi_een" d="M31,9c0.552,0,1,0.448,1,1v5c0,0.552-0.448,1-1,1H13c0,0.552-0.448,1-1,1v3c0,0.552-0.448,1-1,1H3 c-0.552,0-1-0.448-1-1v-3c-0.552,0-1-0.448-1-1V9c0-0.552,0.448-1,1-1V5c0-0.552,0.448-1,1-1h8c0.552,0,1,0.448,1,1v3 c0.552,0,1,0.448,1,1H31z M12,22H2c-0.552,0-1,0.448-1,1v1c-0.552,0-1,0.448-1,1v2c0,0.552,0.448,1,1,1h12c0.552,0,1-0.448,1-1v-2 c0-0.552-0.448-1-1-1v-1C13,22.448,12.552,22,12,22z"/> </g>
</svg>